<svg xmlns="http://www.w3.org/2000/svg" xmlns:xlink="http://www.w3.org/1999/xlink" width="41.504" height="33" viewBox="0 0 41.504 33">
  <defs>
    <clipPath id="clip-path">
      <rect id="長方形_267" data-name="長方形 267" width="41.504" height="33" transform="translate(0 0)" fill="none"/>
    </clipPath>
  </defs>
  <g id="グループ_370" data-name="グループ 370" clip-path="url(#clip-path)">
    <path id="パス_83508" data-name="パス 83508" d="M90.919,45.359h4.523a.59.59,0,1,0,0-1.18H90.919a.59.59,0,1,0,0,1.18" transform="translate(-61.018 -29.843)"/>
    <path id="パス_83509" data-name="パス 83509" d="M69.732,67.519h4.523a.59.59,0,1,0,0-1.18H69.732a.59.59,0,1,0,0,1.18" transform="translate(-46.706 -44.813)"/>
    <path id="パス_83510" data-name="パス 83510" d="M51.76,37.207h-3.9a.59.59,0,1,0,0,1.18h3.293c-.137,1.847-.966,2.867-2.9,3.654a.59.59,0,0,0,.446,1.093A5.149,5.149,0,0,0,52.35,37.8a.592.592,0,0,0-.59-.591" transform="translate(-31.928 -25.134)"/>
    <path id="パス_83511" data-name="パス 83511" d="M51.715,59.918H47.857a.589.589,0,1,0,0,1.179h3.271V64H47.857a.59.59,0,1,0,0,1.18h3.858a.59.59,0,0,0,.591-.591v-4.08a.589.589,0,0,0-.591-.589" transform="translate(-31.929 -40.475)"/>
    <path id="パス_83512" data-name="パス 83512" d="M70.047,39.948V36.976a.589.589,0,1,0-1.179,0v2.972a.589.589,0,1,0,1.179,0" transform="translate(-46.521 -24.579)"/>
    <path id="パス_83513" data-name="パス 83513" d="M72.559,42.616c2.834-.464,3.333-1.787,3.333-4.4V36.976a.589.589,0,1,0-1.178,0V38.22c0,2.275-.276,2.894-2.345,3.232a.59.59,0,0,0,.19,1.164" transform="translate(-48.552 -24.58)"/>
    <path id="パス_83514" data-name="パス 83514" d="M90.9,59.687a9.509,9.509,0,0,1-.776,4.7.59.59,0,1,0,1.05.54,10.652,10.652,0,0,0,.908-5.238.591.591,0,0,0-1.181,0" transform="translate(-60.833 -39.921)"/>
    <path id="パス_83515" data-name="パス 83515" d="M101.113,61.1a.589.589,0,0,0-.715.43,3.293,3.293,0,0,1-1.235,2V59.277a.589.589,0,1,0-1.179,0v5.1a.585.585,0,0,0,.205.447.594.594,0,0,0,.471.137c1.362-.2,2.439-1.378,2.88-3.147a.588.588,0,0,0-.428-.715" transform="translate(-66.19 -39.644)"/>
    <path id="パス_83516" data-name="パス 83516" d="M37.048,6.26C33.126,2.34,27.034,0,20.752,0,9.309,0,0,7.556,0,16.844a10.092,10.092,0,0,0,1.635,5.577.9.9,0,0,0,1.481-1.014A8.258,8.258,0,0,1,1.8,16.844c0-8.3,8.505-15.049,18.957-15.049,5.818,0,11.436,2.145,15.025,5.736a12.826,12.826,0,0,1,3.932,9.209c0,7.188-6.984,14.466-20.328,14.466-3.387,0-6.34-1.013-8.105-2.777a5.85,5.85,0,0,1-1.227-1.749l.134.081a1.088,1.088,0,0,0,.806-.209,7.468,7.468,0,0,0,2.053-4.1c.175-1.588-2.086-2.132-1.767-5.056.14-1.279,2-5.39,3.483-6.581a4.175,4.175,0,0,1,3.27-.669c1.823.2,3.285-3.389,3.435-4.756.081-.751-1.154-1.688-3.184-1.909a5.311,5.311,0,0,0-3.8,1.28C11.864,6.805,6.842,16.3,6.346,20.869A5.715,5.715,0,0,0,7.8,25.348l.055.032A7.146,7.146,0,0,0,10.006,29.7c2.13,2.129,5.458,3.3,9.375,3.3,6.563,0,12.186-1.706,16.26-4.932A14.416,14.416,0,0,0,41.5,16.739,14.6,14.6,0,0,0,37.048,6.26" transform="translate(0 0)"/>
  </g>
</svg>
